<svg xmlns="http://www.w3.org/2000/svg" viewBox="0 0 200 200" width="200" height="200">
  <circle cx="100" cy="100" r="98" fill="#4A7C8A" stroke="#fff" stroke-width="4"/>
  <circle cx="100" cy="100" r="88" fill="#E8DFC8"/>
  <rect x="40" y="95" width="120" height="40" rx="6" fill="#8B6842"/>
  <rect x="42" y="97" width="116" height="36" rx="5" fill="#A07850"/>
  <text x="100" y="120" text-anchor="middle" font-family="Arial Black, sans-serif" font-size="18" font-weight="bold" fill="#fff" letter-spacing="1">BARKS-A-LOT</text>
  <text x="100" y="155" text-anchor="middle" font-family="Arial, sans-serif" font-size="11" font-weight="bold" fill="#2A6B7C" letter-spacing="2">TREATS &amp; MORE</text>
  <!-- Puppy 1 (left) -->
  <circle cx="75" cy="78" r="20" fill="#F5E6C8"/>
  <circle cx="60" cy="68" r="8" fill="#EDD9B5"/>
  <circle cx="90" cy="68" r="8" fill="#EDD9B5"/>
  <circle cx="70" cy="80" r="3" fill="#333"/>
  <circle cx="82" cy="80" r="3" fill="#333"/>
  <ellipse cx="76" cy="86" rx="4" ry="3" fill="#333"/>
  <!-- Puppy 2 (right) -->
  <circle cx="125" cy="78" r="20" fill="#D4A04A"/>
  <circle cx="110" cy="68" r="8" fill="#C89040"/>
  <circle cx="140" cy="68" r="8" fill="#C89040"/>
  <circle cx="120" cy="80" r="3" fill="#333"/>
  <circle cx="132" cy="80" r="3" fill="#333"/>
  <ellipse cx="126" cy="86" rx="4" ry="3" fill="#333"/>
</svg>
